<svg width="158" height="158" viewBox="0 0 158 158" fill="none" xmlns="http://www.w3.org/2000/svg">
<g filter="url(#filter0_dd_115_220)">
<g filter="url(#filter1_d_115_220)">
<circle cx="79" cy="75" r="75" fill="url(#paint0_linear_115_220)"/>
</g>
<path d="M20.6455 56.3105C23.8356 56.4017 26.4788 56.4701 28.5752 56.5156C30.7171 56.5156 32.4489 56.5156 33.7705 56.5156H37.3936H57.7646C57.8558 57.4271 57.9242 58.3158 57.9697 59.1816C58.0609 60.002 58.1064 60.7311 58.1064 61.3691C58.1064 62.1439 58.0837 62.8503 58.0381 63.4883C57.9925 64.1263 57.9242 64.8099 57.833 65.5391C57.7419 66.1771 57.6507 66.8607 57.5596 67.5898C57.4684 68.319 57.3089 69.071 57.0811 69.8457C56.443 67.3848 55.5771 65.5163 54.4834 64.2402C53.4352 62.9642 52.3643 62.0299 51.2705 61.4375C49.9945 60.7539 48.6501 60.3893 47.2373 60.3437C45.3688 60.4349 43.9105 60.5944 42.8623 60.8223C41.8141 61.0501 40.9938 61.3691 40.4014 61.7793C39.8089 62.1895 39.3532 62.668 39.0342 63.2148C38.7607 63.7161 38.4645 64.2858 38.1455 64.9238C37.8721 65.4707 37.6214 66.3138 37.3936 67.4531C37.1657 68.4102 36.9378 69.709 36.71 71.3496C36.5277 72.9902 36.3226 75.1094 36.0947 77.707C37.3252 77.3424 38.305 77.0006 39.0342 76.6816C39.8089 76.3626 40.4242 76.0892 40.8799 75.8613C41.3812 75.5879 41.7458 75.3372 41.9736 75.1094C42.1559 74.8359 42.4294 74.3346 42.7939 73.6055C43.0674 72.9674 43.432 72.1016 43.8877 71.0078C44.389 69.9141 44.9814 68.4102 45.665 66.4961C45.7562 68.5924 45.8018 70.347 45.8018 71.7598C45.8018 73.127 45.8245 74.2435 45.8701 75.1094C45.8701 76.112 45.8929 76.9095 45.9385 77.502V80.0996C45.9385 81.0566 45.9385 82.3555 45.9385 83.9961C45.984 85.5911 46.0524 87.6191 46.1436 90.0801C45.5967 88.3939 45.0954 87.0723 44.6396 86.1152C44.2295 85.1126 43.8649 84.3607 43.5459 83.8594C43.1813 83.2669 42.8623 82.8568 42.5889 82.6289C42.2699 82.5378 41.8369 82.4466 41.29 82.3555C40.7887 82.3099 40.1507 82.2871 39.376 82.2871C38.6468 82.2871 37.7126 82.401 36.5732 82.6289C36.4365 85.1354 36.4137 87.1634 36.5049 88.7129C36.6416 90.2168 36.8239 91.3789 37.0518 92.1992C37.2796 93.1562 37.5531 93.8398 37.8721 94.25C38.2822 94.6602 39.1025 95.0019 40.333 95.2754C41.5635 95.5033 42.9534 95.5944 44.5029 95.5488C46.098 95.4577 47.7158 95.1842 49.3564 94.7285C50.9971 94.2728 52.4554 93.5208 53.7314 92.4727C54.6885 91.6068 55.7139 90.513 56.8076 89.1914C57.7191 88.0521 58.7217 86.6165 59.8154 84.8848C60.9548 83.153 62.0713 81.0566 63.165 78.5957C62.9827 80.6465 62.846 82.3555 62.7549 83.7227C62.7093 85.0443 62.6409 86.1152 62.5498 86.9355C62.4587 87.8926 62.3903 88.6217 62.3447 89.123C62.3447 89.6699 62.2764 90.4447 62.1396 91.4473C62.0485 92.3131 61.889 93.498 61.6611 95.0019C61.4788 96.4603 61.2282 98.3288 60.9092 100.607C58.7673 100.653 56.7393 100.699 54.8252 100.744C52.9111 100.744 51.2249 100.767 49.7666 100.812C48.0348 100.858 46.4398 100.904 44.9814 100.949C43.4775 100.949 41.8141 101.018 39.9912 101.154C38.3962 101.245 36.5049 101.382 34.3174 101.564C32.1755 101.747 29.8057 101.997 27.208 102.316C27.4359 99.2174 27.5954 96.3008 27.6865 93.5664C27.8232 90.7865 27.9144 88.3483 27.96 86.252C28.0055 83.791 28.0055 81.5124 27.96 79.416C28.1878 74.1751 28.0967 69.9368 27.6865 66.7012C27.2764 63.4655 26.7979 61.3919 26.251 60.4805C25.9775 60.1615 25.5902 59.7741 25.0889 59.3184C24.6787 58.9538 24.109 58.5208 23.3799 58.0195C22.6507 57.5182 21.7393 56.9486 20.6455 56.3105ZM86.3389 53.0977C89.3922 53.4622 92.0355 53.7357 94.2686 53.918C96.5016 54.0547 98.3473 54.1686 99.8057 54.2598C101.492 54.3509 102.905 54.3737 104.044 54.3281C105.229 54.2826 106.847 54.1686 108.897 53.9863C110.629 53.8496 112.908 53.6673 115.733 53.4395C118.559 53.166 122.091 52.8014 126.329 52.3457C126.375 53.3939 126.397 54.4193 126.397 55.4219C126.443 56.3789 126.489 57.222 126.534 57.9512C126.58 58.8171 126.603 59.6146 126.603 60.3437C126.603 61.1185 126.557 62.0983 126.466 63.2832C126.375 64.2858 126.215 65.5618 125.987 67.1113C125.805 68.6152 125.509 70.4154 125.099 72.5117C124.461 70.0508 123.845 68.0684 123.253 66.5645C122.66 65.015 122.114 63.7845 121.612 62.873C121.065 61.8249 120.519 61.0273 119.972 60.4805C119.379 60.0703 118.673 59.7285 117.853 59.4551C117.123 59.2272 116.189 59.0449 115.05 58.9082C113.956 58.7715 112.657 58.7943 111.153 58.9766C110.925 64.9922 110.766 69.8685 110.675 73.6055C110.584 77.3424 110.515 80.2591 110.47 82.3555C110.424 84.862 110.401 86.6621 110.401 87.7559C110.447 89.3053 110.698 90.832 111.153 92.3359C111.518 93.612 112.11 94.9336 112.931 96.3008C113.751 97.668 114.936 98.8756 116.485 99.9238H108.146C107.371 99.9238 106.414 99.9694 105.274 100.061C104.317 100.152 103.087 100.243 101.583 100.334C100.125 100.425 98.4157 100.585 96.4561 100.812C97.1396 99.6276 97.6865 98.5566 98.0967 97.5996C98.5068 96.6426 98.8258 95.8223 99.0537 95.1387C99.3271 94.3184 99.5322 93.5892 99.6689 92.9512C99.7145 92.0397 99.8284 90.194 100.011 87.4141C100.056 86.2747 100.102 84.862 100.147 83.1758C100.239 81.4896 100.33 79.4844 100.421 77.1602C100.558 74.8359 100.672 72.1699 100.763 69.1621C100.899 66.1087 101.036 62.668 101.173 58.8398C100.353 58.612 99.5778 58.6348 98.8486 58.9082C98.1195 59.1361 97.4814 59.4323 96.9346 59.7969C96.2965 60.2526 95.6813 60.7995 95.0889 61.4375C94.4964 62.2122 93.8356 63.2148 93.1064 64.4453C92.4684 65.4935 91.7393 66.8835 90.9189 68.6152C90.0986 70.3014 89.1644 72.3978 88.1162 74.9043C87.8883 72.2611 87.7288 70.0964 87.6377 68.4102C87.5465 66.6784 87.4782 65.334 87.4326 64.377C87.387 63.2376 87.3643 62.3945 87.3643 61.8477C87.3643 61.3464 87.3187 60.6855 87.2275 59.8652C87.1364 59.1816 87.0225 58.293 86.8857 57.1992C86.749 56.0599 86.5667 54.6927 86.3389 53.0977Z" fill="url(#paint1_linear_115_220)"/>
</g>
<defs>
<filter id="filter0_dd_115_220" x="0" y="0" width="158" height="158" filterUnits="userSpaceOnUse" color-interpolation-filters="sRGB">
<feFlood flood-opacity="0" result="BackgroundImageFix"/>
<feColorMatrix in="SourceAlpha" type="matrix" values="0 0 0 0 0 0 0 0 0 0 0 0 0 0 0 0 0 0 127 0" result="hardAlpha"/>
<feOffset dy="4"/>
<feGaussianBlur stdDeviation="2"/>
<feComposite in2="hardAlpha" operator="out"/>
<feColorMatrix type="matrix" values="0 0 0 0 0 0 0 0 0 0 0 0 0 0 0 0 0 0 0.25 0"/>
<feBlend mode="normal" in2="BackgroundImageFix" result="effect1_dropShadow_115_220"/>
<feColorMatrix in="SourceAlpha" type="matrix" values="0 0 0 0 0 0 0 0 0 0 0 0 0 0 0 0 0 0 127 0" result="hardAlpha"/>
<feOffset dy="4"/>
<feGaussianBlur stdDeviation="2"/>
<feComposite in2="hardAlpha" operator="out"/>
<feColorMatrix type="matrix" values="0 0 0 0 0 0 0 0 0 0 0 0 0 0 0 0 0 0 0.25 0"/>
<feBlend mode="normal" in2="effect1_dropShadow_115_220" result="effect2_dropShadow_115_220"/>
<feBlend mode="normal" in="SourceGraphic" in2="effect2_dropShadow_115_220" result="shape"/>
</filter>
<filter id="filter1_d_115_220" x="0" y="0" width="158" height="158" filterUnits="userSpaceOnUse" color-interpolation-filters="sRGB">
<feFlood flood-opacity="0" result="BackgroundImageFix"/>
<feColorMatrix in="SourceAlpha" type="matrix" values="0 0 0 0 0 0 0 0 0 0 0 0 0 0 0 0 0 0 127 0" result="hardAlpha"/>
<feOffset dy="4"/>
<feGaussianBlur stdDeviation="2"/>
<feComposite in2="hardAlpha" operator="out"/>
<feColorMatrix type="matrix" values="0 0 0 0 0 0 0 0 0 0 0 0 0 0 0 0 0 0 0.25 0"/>
<feBlend mode="normal" in2="BackgroundImageFix" result="effect1_dropShadow_115_220"/>
<feBlend mode="normal" in="SourceGraphic" in2="effect1_dropShadow_115_220" result="shape"/>
</filter>
<linearGradient id="paint0_linear_115_220" x1="24" y1="19" x2="154" y2="175" gradientUnits="userSpaceOnUse">
<stop stop-color="#FFFDF0"/>
<stop offset="1" stop-color="#C3D7E7"/>
</linearGradient>
<linearGradient id="paint1_linear_115_220" x1="74" y1="36" x2="74" y2="121" gradientUnits="userSpaceOnUse">
<stop stop-color="#C3D7E7"/>
<stop offset="0.42" stop-color="#2A2C57"/>
<stop offset="0.605" stop-color="#570E57"/>
<stop offset="1" stop-color="#E791A5"/>
</linearGradient>
</defs>
</svg>
